REM DIRINDEX 1\6,1\2\7,1\2\8,1\2\9,1\3\10,1\3\11,1\4\12,1\4\13,1\4\14,1\5\15,1\5\16,1\5\17
REM DIRNAME cjc040,folder01,folder02,folder03,folder04,folder05,folder06,folder07,folder08,folder09,folder10,folder11,folder12,folder13,folder14,folder15,folder16
TITLE ""
FILE "P2Q_t2_0215-0232.mp3" MP3
  TRACK 01 AUDIO
    TITLE "7:cjc040_4472"
    INDEX 01 00:00:00
  TRACK 02 AUDIO
    TITLE "0:"
    INDEX 01 00:00:74
  TRACK 03 AUDIO
    TITLE "8:cjc040_4473"
    INDEX 01 00:01:62
  TRACK 04 AUDIO
    TITLE "0:"
    INDEX 01 00:04:05
  TRACK 05 AUDIO
    TITLE "9:cjc040_4474"
    INDEX 01 00:04:56
  TRACK 06 AUDIO
    TITLE "0:"
    INDEX 01 00:05:65
  TRACK 07 AUDIO
    TITLE "7:cjc040_4475"
    INDEX 01 00:07:47
  TRACK 08 AUDIO
    TITLE "0:"
    INDEX 01 00:08:66
  TRACK 09 AUDIO
    TITLE "8:cjc040_4476"
    INDEX 01 00:09:47
  TRACK 10 AUDIO
    TITLE "0:"
    INDEX 01 00:12:67
  TRACK 11 AUDIO
    TITLE "9:cjc040_4477"
    INDEX 01 00:13:51
  TRACK 12 AUDIO
    TITLE "0:"
    INDEX 01 00:14:70
  TRACK 13 AUDIO
    TITLE "7:cjc040_4478"
    INDEX 01 00:16:53
  TRACK 14 AUDIO
    TITLE "0:"
    INDEX 01 00:17:74
  TRACK 15 AUDIO
    TITLE "8:cjc040_4479"
    INDEX 01 00:18:52
  TRACK 16 AUDIO
    TITLE "0:"
    INDEX 01 00:21:04
  TRACK 17 AUDIO
    TITLE "9:cjc040_4480"
    INDEX 01 00:21:58
  TRACK 18 AUDIO
    TITLE "0:"
    INDEX 01 00:23:08
  TRACK 19 AUDIO
    TITLE "7:cjc040_4481"
    INDEX 01 00:24:65
  TRACK 20 AUDIO
    TITLE "0:"
    INDEX 01 00:25:72
  TRACK 21 AUDIO
    TITLE "8:cjc040_4482"
    INDEX 01 00:26:56
  TRACK 22 AUDIO
    TITLE "0:"
    INDEX 01 00:29:11
  TRACK 23 AUDIO
    TITLE "9:cjc040_4483"
    INDEX 01 00:29:66
  TRACK 24 AUDIO
    TITLE "0:"
    INDEX 01 00:31:06
  TRACK 25 AUDIO
    TITLE "7:cjc040_4484"
    INDEX 01 00:32:66
  TRACK 26 AUDIO
    TITLE "0:"
    INDEX 01 00:34:14
  TRACK 27 AUDIO
    TITLE "8:cjc040_4485"
    INDEX 01 00:34:71
  TRACK 28 AUDIO
    TITLE "0:"
    INDEX 01 00:35:72
  TRACK 29 AUDIO
    TITLE "9:cjc040_4486"
    INDEX 01 00:36:46
  TRACK 30 AUDIO
    TITLE "0:"
    INDEX 01 00:38:02
  TRACK 31 AUDIO
    TITLE "7:cjc040_4487"
    INDEX 01 00:39:60
  TRACK 32 AUDIO
    TITLE "0:"
    INDEX 01 00:41:02
  TRACK 33 AUDIO
    TITLE "8:cjc040_4488"
    INDEX 01 00:41:55
  TRACK 34 AUDIO
    TITLE "0:"
    INDEX 01 00:42:61
  TRACK 35 AUDIO
    TITLE "9:cjc040_4489"
    INDEX 01 00:43:39
  TRACK 36 AUDIO
    TITLE "0:"
    INDEX 01 00:44:61
  TRACK 37 AUDIO
    TITLE "7:cjc040_4490"
    INDEX 01 00:46:47
  TRACK 38 AUDIO
    TITLE "0:"
    INDEX 01 00:47:56
  TRACK 39 AUDIO
    TITLE "8:cjc040_4491"
    INDEX 01 00:48:40
  TRACK 40 AUDIO
    TITLE "0:"
    INDEX 01 00:51:67
  TRACK 41 AUDIO
    TITLE "9:cjc040_4492"
    INDEX 01 00:52:43
  TRACK 42 AUDIO
    TITLE "0:"
    INDEX 01 00:53:60
  TRACK 43 AUDIO
    TITLE "7:cjc040_4493"
    INDEX 01 00:55:40
  TRACK 44 AUDIO
    TITLE "0:"
    INDEX 01 00:56:69
  TRACK 45 AUDIO
    TITLE "8:cjc040_4494"
    INDEX 01 00:57:52
  TRACK 46 AUDIO
    TITLE "0:"
    INDEX 01 00:58:66
  TRACK 47 AUDIO
    TITLE "9:cjc040_4495"
    INDEX 01 00:59:43
  TRACK 48 AUDIO
    TITLE "0:"
    INDEX 01 01:01:01
  TRACK 49 AUDIO
    TITLE "7:cjc040_4496"
    INDEX 01 01:02:55
  TRACK 50 AUDIO
    TITLE "0:"
    INDEX 01 01:03:59
  TRACK 51 AUDIO
    TITLE "8:cjc040_4497"
    INDEX 01 01:04:35
  TRACK 52 AUDIO
    TITLE "0:"
    INDEX 01 01:05:38
  TRACK 53 AUDIO
    TITLE "9:cjc040_4498"
    INDEX 01 01:06:16
  TRACK 54 AUDIO
    TITLE "0:"
    INDEX 01 01:07:25
  TRACK 55 AUDIO
    TITLE "7:cjc040_4499"
    INDEX 01 01:09:05
  TRACK 56 AUDIO
    TITLE "0:"
    INDEX 01 01:10:45
  TRACK 57 AUDIO
    TITLE "8:cjc040_4500"
    INDEX 01 01:11:15
  TRACK 58 AUDIO
    TITLE "0:"
    INDEX 01 01:13:40
  TRACK 59 AUDIO
    TITLE "9:cjc040_4501"
    INDEX 01 01:14:19
  TRACK 60 AUDIO
    TITLE "0:"
    INDEX 01 01:15:62
  TRACK 61 AUDIO
    TITLE "7:cjc040_4502"
    INDEX 01 01:17:45
  TRACK 62 AUDIO
    TITLE "0:"
    INDEX 01 01:18:49
  TRACK 63 AUDIO
    TITLE "8:cjc040_4503"
    INDEX 01 01:19:34
  TRACK 64 AUDIO
    TITLE "0:"
    INDEX 01 01:21:43
  TRACK 65 AUDIO
    TITLE "9:cjc040_4504"
    INDEX 01 01:22:19
  TRACK 66 AUDIO
    TITLE "0:"
    INDEX 01 01:23:22
  TRACK 67 AUDIO
    TITLE "7:cjc040_4505"
    INDEX 01 01:25:08
  TRACK 68 AUDIO
    TITLE "0:"
    INDEX 01 01:26:50
  TRACK 69 AUDIO
    TITLE "8:cjc040_4506"
    INDEX 01 01:27:30
  TRACK 70 AUDIO
    TITLE "0:"
    INDEX 01 01:28:41
  TRACK 71 AUDIO
    TITLE "9:cjc040_4507"
    INDEX 01 01:29:23
  TRACK 72 AUDIO
    TITLE "0:"
    INDEX 01 01:30:66
  TRACK 73 AUDIO
    TITLE "7:cjc040_4508"
    INDEX 01 01:32:47
  TRACK 74 AUDIO
    TITLE "0:"
    INDEX 01 01:33:62
  TRACK 75 AUDIO
    TITLE "8:cjc040_4509"
    INDEX 01 01:34:50
  TRACK 76 AUDIO
    TITLE "0:"
    INDEX 01 01:36:74
  TRACK 77 AUDIO
    TITLE "9:cjc040_4510"
    INDEX 01 01:37:56
  TRACK 78 AUDIO
    TITLE "0:"
    INDEX 01 01:39:00
  TRACK 79 AUDIO
    TITLE "7:cjc040_4511"
    INDEX 01 01:40:58
  TRACK 80 AUDIO
    TITLE "0:"
    INDEX 01 01:42:06
  TRACK 81 AUDIO
    TITLE "8:cjc040_4512"
    INDEX 01 01:42:61
  TRACK 82 AUDIO
    TITLE "0:"
    INDEX 01 01:44:03
  TRACK 83 AUDIO
    TITLE "9:cjc040_4513"
    INDEX 01 01:44:54
  TRACK 84 AUDIO
    TITLE "0:"
    INDEX 01 01:45:73
  TRACK 85 AUDIO
    TITLE "7:cjc040_4514"
    INDEX 01 01:47:62
  TRACK 86 AUDIO
    TITLE "0:"
    INDEX 01 01:49:04
  TRACK 87 AUDIO
    TITLE "8:cjc040_4515"
    INDEX 01 01:49:65
  TRACK 88 AUDIO
    TITLE "0:"
    INDEX 01 01:51:01
  TRACK 89 AUDIO
    TITLE "9:cjc040_4516"
    INDEX 01 01:51:54
  TRACK 90 AUDIO
    TITLE "0:"
    INDEX 01 01:52:73
  TRACK 91 AUDIO
    TITLE "7:cjc040_4517"
    INDEX 01 01:54:60
  TRACK 92 AUDIO
    TITLE "0:"
    INDEX 01 01:55:71
  TRACK 93 AUDIO
    TITLE "8:cjc040_4518"
    INDEX 01 01:56:49
  TRACK 94 AUDIO
    TITLE "0:"
    INDEX 01 01:58:58
  TRACK 95 AUDIO
    TITLE "9:cjc040_4519"
    INDEX 01 01:59:44
  TRACK 96 AUDIO
    TITLE "0:"
    INDEX 01 02:00:57
  TRACK 97 AUDIO
    TITLE "7:cjc040_4520"
    INDEX 01 02:02:34
  TRACK 98 AUDIO
    TITLE "0:"
    INDEX 01 02:03:43
  TRACK 99 AUDIO
    TITLE "8:cjc040_4521"
    INDEX 01 02:04:21
  TRACK 100 AUDIO
    TITLE "0:"
    INDEX 01 02:05:17
  TRACK 101 AUDIO
    TITLE "9:cjc040_4522"
    INDEX 01 02:05:72
  TRACK 102 AUDIO
    TITLE "0:"
    INDEX 01 02:07:08
  TRACK 103 AUDIO
    TITLE "7:cjc040_4523"
    INDEX 01 02:08:68
  TRACK 104 AUDIO
    TITLE "0:"
    INDEX 01 02:10:14
  TRACK 105 AUDIO
    TITLE "8:cjc040_4524"
    INDEX 01 02:10:71
  TRACK 106 AUDIO
    TITLE "0:"
    INDEX 01 02:12:60
  TRACK 107 AUDIO
    TITLE "9:cjc040_4525"
    INDEX 01 02:13:36
  TRACK 108 AUDIO
    TITLE "0:"
    INDEX 01 02:14:55
